<svg width="152.69629" height="86.03332500000002" xmlns="http://www.w3.org/2000/svg" version="1.1" xml:space="preserve">
 <defs id="defs2">
  <clipPath clipPathUnits="userSpaceOnUse" id="clipPath9667">
   <path d="m0,720l1280,0l0,-720l-1280,0l0,720z" id="path9665"/>
  </clipPath>
  <clipPath clipPathUnits="userSpaceOnUse" id="clipPath9675">
   <path d="m247.587,670.518l552.72,0l0,-363.36l-552.72,0l0,363.36z" id="path9673"/>
  </clipPath>
  <clipPath clipPathUnits="userSpaceOnUse" id="clipPath9679">
   <path d="m247.587,670.518l552.72,0l0,-363.36l-552.72,0l0,363.36z" id="path9677"/>
  </clipPath>
  <clipPath clipPathUnits="userSpaceOnUse" id="clipPath9719">
   <path d="m0,720l1280,0l0,-720l-1280,0l0,720z" id="path9717"/>
  </clipPath>
  <clipPath clipPathUnits="userSpaceOnUse" id="clipPath9727">
   <path d="m720.387,390.678l552.723,0l0,-363.3604l-552.723,0l0,363.3604z" id="path9725"/>
  </clipPath>
  <clipPath clipPathUnits="userSpaceOnUse" id="clipPath9731">
   <path d="m720.387,390.678l552.723,0l0,-363.3604l-552.723,0l0,363.3604z" id="path9729"/>
  </clipPath>
  <clipPath clipPathUnits="userSpaceOnUse" id="clipPath9979">
   <path d="m0,720l1280,0l0,-720l-1280,0l0,720z" id="path9977"/>
  </clipPath>
  <clipPath clipPathUnits="userSpaceOnUse" id="clipPath9987">
   <path d="m720.387,390.438l552.723,0l0,-363.1204l-552.723,0l0,363.1204z" id="path9985"/>
  </clipPath>
  <clipPath clipPathUnits="userSpaceOnUse" id="clipPath9991">
   <path d="m720.387,390.438l552.723,0l0,-363.1204l-552.723,0l0,363.1204z" id="path9989"/>
  </clipPath>
  <clipPath clipPathUnits="userSpaceOnUse" id="clipPath10101">
   <path d="m0,720l1280,0l0,-720l-1280,0l0,720z" id="path10099"/>
  </clipPath>
  <clipPath clipPathUnits="userSpaceOnUse" id="clipPath10111">
   <path d="m247.827,670.758l552.72,0l0,-363.6l-552.72,0l0,363.6z" id="path10109"/>
  </clipPath>
  <clipPath clipPathUnits="userSpaceOnUse" id="clipPath10115">
   <path d="m247.827,670.758l552.72,0l0,-363.6l-552.72,0l0,363.6z" id="path10113"/>
  </clipPath>
  <clipPath clipPathUnits="userSpaceOnUse" id="clipPath10205">
   <path d="m307.963,378.056l432.572,0l0,243.084l-432.572,0l0,-243.084z" id="path10203"/>
  </clipPath>
 </defs>
 <g>
  <title>Layer 1</title>
  <rect width="100%" height="100%" fill="#052f42" />
  <g id="g9973" transform="matrix(0.35277776,0,0,-0.35277778,-108.54785,219.12439)">
   <g id="g9975" clip-path="url(#clipPath9979)">
    <g id="g10025">
     <path d="m949.51318,139.4456c0,-0.735 0.158,-1.238 0.474,-1.51c0.316,-0.272 0.716,-0.408 1.201,-0.408c0.191,0 0.408,0.029 0.651,0.088c0.242,0.059 0.496,0.14 0.76,0.243c0.265,0.103 0.526,0.22 0.783,0.353c0.257,0.131 0.496,0.271 0.716,0.419l0,5.003c-0.514,0.207 -0.995,0.365 -1.443,0.475c-0.449,0.11 -0.879,0.165 -1.29,0.165c-0.515,0 -0.952,-0.154 -1.312,-0.463c-0.36,-0.308 -0.54,-0.831 -0.54,-1.565l0,-2.8zm-2.337,3.108c0,1.22 0.349,2.179 1.047,2.877c0.698,0.699 1.621,1.047 2.767,1.047c0.382,0 0.841,-0.04 1.378,-0.121c0.536,-0.081 1.113,-0.246 1.73,-0.496l0,5.357l2.337,0l0,-15.785l-2.116,0l-0.221,1.08c-0.749,-0.455 -1.385,-0.767 -1.906,-0.936c-0.522,-0.169 -0.974,-0.253 -1.356,-0.253c-1.132,0 -2.025,0.319 -2.679,0.959c-0.654,0.639 -0.981,1.634 -0.981,2.986l0,3.285z" id="path10027" fill="#ff931e" fill-rule="nonzero"/>
    </g>
    <g id="g10029">
     <path d="m966.79688,136.80009c-0.588,-0.603 -1.212,-1 -1.874,-1.19c-0.661,-0.192 -1.323,-0.287 -1.984,-0.287c-0.617,0 -1.198,0.088 -1.742,0.264c-0.544,0.177 -1.014,0.434 -1.41,0.773c-0.397,0.336 -0.71,0.745 -0.938,1.222c-0.227,0.478 -0.341,1.026 -0.341,1.643l0,3.241c0,0.646 0.124,1.22 0.374,1.719c0.25,0.5 0.581,0.919 0.993,1.257c0.411,0.337 0.881,0.595 1.411,0.772c0.529,0.176 1.072,0.264 1.631,0.264c0.323,0 0.654,-0.019 0.992,-0.055c0.338,-0.037 0.673,-0.103 1.003,-0.198c0.331,-0.096 0.654,-0.236 0.97,-0.419c0.316,-0.184 0.621,-0.43 0.915,-0.738l-1.367,-1.743c-0.5,0.456 -0.945,0.735 -1.334,0.838c-0.389,0.103 -0.731,0.155 -1.025,0.155c-0.25,0 -0.507,-0.041 -0.772,-0.122c-0.264,-0.081 -0.503,-0.209 -0.716,-0.385c-0.213,-0.177 -0.39,-0.408 -0.529,-0.695c-0.14,-0.287 -0.209,-0.635 -0.209,-1.047l0,-2.337c0,-0.411 0.062,-0.76 0.187,-1.047c0.125,-0.286 0.29,-0.519 0.496,-0.695c0.206,-0.176 0.441,-0.304 0.706,-0.385c0.264,-0.081 0.536,-0.121 0.815,-0.121c0.309,0 0.684,0.069 1.124,0.209c0.441,0.139 0.838,0.378 1.191,0.716l1.433,-1.609z" id="path10031" fill="#ff931e" fill-rule="nonzero"/>
    </g>
    <g id="g10033">
     <path d="m979.23053,139.7317c0,-0.705 -0.14,-1.333 -0.419,-1.885c-0.279,-0.551 -0.665,-1.013 -1.157,-1.388c-0.493,-0.375 -1.084,-0.662 -1.775,-0.86c-0.691,-0.198 -1.441,-0.298 -2.249,-0.298c-1.072,0 -2.083,0.151 -3.031,0.452c-0.948,0.301 -1.863,0.812 -2.744,1.532l1.41,1.83c0.662,-0.485 1.363,-0.863 2.106,-1.135c0.742,-0.272 1.488,-0.408 2.237,-0.408c0.999,0 1.745,0.201 2.238,0.605c0.492,0.404 0.738,0.913 0.738,1.53c0,0.425 -0.099,0.77 -0.297,1.035c-0.199,0.263 -0.467,0.483 -0.805,0.659c-0.338,0.177 -0.724,0.316 -1.157,0.419c-0.434,0.102 -0.886,0.213 -1.356,0.33c-0.588,0.132 -1.157,0.301 -1.709,0.506c-0.551,0.205 -1.036,0.473 -1.454,0.804c-0.419,0.33 -0.758,0.733 -1.014,1.209c-0.258,0.477 -0.386,1.061 -0.386,1.75c0,0.646 0.117,1.241 0.352,1.784c0.235,0.543 0.574,1.012 1.014,1.408c0.441,0.396 0.97,0.708 1.588,0.935c0.617,0.227 1.308,0.341 2.072,0.341c0.911,0 1.811,-0.091 2.7,-0.272c0.89,-0.183 1.739,-0.529 2.547,-1.037l-1.124,-2.064c-0.677,0.411 -1.349,0.698 -2.018,0.861c-0.668,0.161 -1.326,0.242 -1.973,0.242c-0.353,0 -0.687,-0.044 -1.003,-0.132c-0.316,-0.088 -0.595,-0.221 -0.837,-0.398c-0.243,-0.175 -0.438,-0.4 -0.585,-0.671c-0.147,-0.273 -0.22,-0.592 -0.22,-0.959c0,-0.368 0.095,-0.677 0.287,-0.926c0.19,-0.25 0.444,-0.46 0.76,-0.629c0.316,-0.169 0.676,-0.309 1.08,-0.419c0.404,-0.11 0.827,-0.209 1.267,-0.298c0.721,-0.161 1.382,-0.352 1.985,-0.572c0.602,-0.221 1.12,-0.504 1.554,-0.85c0.434,-0.344 0.772,-0.76 1.014,-1.245c0.243,-0.485 0.364,-1.08 0.364,-1.786" id="path10035" fill="#032f42" fill-rule="nonzero"/>
    </g>
    <g id="g10037">
     <path d="m987.96051,142.3118c0,0.734 -0.158,1.237 -0.474,1.51c-0.316,0.271 -0.716,0.408 -1.201,0.408c-0.192,0 -0.408,-0.03 -0.651,-0.089c-0.242,-0.058 -0.496,-0.14 -0.76,-0.242c-0.265,-0.104 -0.526,-0.221 -0.783,-0.353c-0.257,-0.132 -0.496,-0.272 -0.716,-0.419l0,-4.982c0.587,-0.25 1.091,-0.419 1.51,-0.507c0.419,-0.089 0.826,-0.133 1.223,-0.133c0.25,0 0.489,0.03 0.717,0.089c0.227,0.058 0.426,0.165 0.595,0.32c0.169,0.154 0.301,0.356 0.396,0.606c0.096,0.25 0.144,0.558 0.144,0.926l0,2.866zm2.337,-3.087c0,-1.22 -0.334,-2.179 -1,-2.877c-0.667,-0.698 -1.608,-1.047 -2.824,-1.047c-0.381,0 -0.835,0.037 -1.363,0.111c-0.527,0.073 -1.106,0.256 -1.735,0.55l0,-4.894l-2.337,0l0,15.278l2.116,0l0.221,-1.08c0.747,0.455 1.384,0.768 1.912,0.937c0.527,0.169 0.981,0.254 1.362,0.254c1.128,0 2.018,-0.32 2.67,-0.959c0.652,-0.64 0.978,-1.636 0.978,-2.988l0,-3.285z" id="path10039" fill="#032f42" fill-rule="nonzero"/>
    </g>
    <g id="g10041">
     <path d="m999.11578,140.1067l-2.624,0c-0.206,0 -0.418,-0.015 -0.639,-0.044c-0.22,-0.029 -0.423,-0.092 -0.606,-0.187c-0.184,-0.096 -0.339,-0.232 -0.463,-0.409c-0.125,-0.175 -0.188,-0.418 -0.188,-0.726c0,-0.412 0.147,-0.732 0.441,-0.959c0.294,-0.229 0.683,-0.342 1.169,-0.342c0.264,0 0.529,0.032 0.794,0.099c0.264,0.066 0.525,0.147 0.782,0.243c0.257,0.095 0.5,0.201 0.728,0.319c0.227,0.117 0.429,0.228 0.606,0.33l0,1.676zm-0.044,-3.682c-0.779,-0.441 -1.437,-0.731 -1.973,-0.871c-0.537,-0.139 -1.033,-0.209 -1.488,-0.209c-1.088,0 -1.94,0.294 -2.557,0.882c-0.618,0.588 -0.927,1.397 -0.927,2.425c0,0.602 0.133,1.109 0.397,1.521c0.265,0.412 0.595,0.746 0.992,1.003c0.397,0.257 0.827,0.445 1.29,0.563c0.463,0.117 0.893,0.176 1.289,0.176l3.021,0l0,0.662c0,0.646 -0.184,1.109 -0.551,1.388c-0.368,0.28 -0.934,0.419 -1.698,0.419c-0.367,0 -0.819,-0.055 -1.355,-0.165c-0.537,-0.11 -1.078,-0.386 -1.621,-0.827l-1.08,1.741c0.735,0.559 1.473,0.922 2.215,1.092c0.742,0.169 1.429,0.253 2.062,0.253c1.499,0 2.601,-0.33 3.307,-0.992c0.705,-0.661 1.058,-1.668 1.058,-3.02l0,-7.033l-2.116,0l-0.199,0.948l-0.066,0.044z" id="path10043" fill="#032f42" fill-rule="nonzero"/>
    </g>
    <g id="g10045">
     <path d="m1010.20471,144.05299c-0.97,-0.088 -1.774,-0.25 -2.414,-0.485c-0.639,-0.236 -1.172,-0.485 -1.598,-0.749l0,-7.386l-2.337,0l0,10.934l2.117,0l0.198,-1.609l0.022,0c0.19,0.191 0.437,0.39 0.739,0.596c0.3,0.206 0.631,0.393 0.991,0.562c0.361,0.168 0.735,0.309 1.125,0.419c0.389,0.11 0.775,0.165 1.157,0.165l0,-2.447z" id="path10047" fill="#032f42" fill-rule="nonzero"/>
    </g>
    <g id="g10049">
     <path d="m1011.39459,135.43291l0,15.785l2.337,0l0,-8.355l1.257,0c0.441,0 0.819,0.088 1.135,0.264c0.316,0.176 0.606,0.53 0.871,1.058l1.124,2.205l2.624,0l-1.323,-2.756c-0.206,-0.427 -0.426,-0.786 -0.661,-1.08c-0.236,-0.294 -0.573,-0.521 -1.014,-0.684c0.308,-0.102 0.565,-0.239 0.771,-0.408c0.206,-0.169 0.375,-0.356 0.507,-0.561c0.132,-0.206 0.243,-0.427 0.331,-0.661c0.088,-0.236 0.168,-0.471 0.242,-0.706l1.367,-4.101l-2.601,0l-1.125,3.527c-0.205,0.647 -0.463,1.088 -0.771,1.324c-0.309,0.234 -0.75,0.352 -1.323,0.352l-1.411,0l0,-5.203l-2.337,0z" id="path10051" fill="#032f42" fill-rule="nonzero"/>
    </g>
    <g id="g10053">
     <path d="m929.30328,142.6702zm-2.54,9.646l0,-8.461l-7.669,3.576l-1.074,-2.302l-1.073,-2.302l6.346,-2.96l-6.346,-2.959l1.073,-2.302l1.074,-2.302l7.669,3.577l2.54,1.184l0,0.001l0,-0.001l2.54,1.184l0,0.434l0,2.369l0,0.433l0,2.37l0,8.461l-5.08,0z" id="path10055" fill="#032f42" fill-rule="nonzero"/>
    </g>
    <g id="g10057">
     <path d="m941.65973,142.82739l-2.147,4.604l-7.67,-3.577l0,-5.172l0,-0.433l-2.539,-1.185l-0.004,-0.001l2.543,-1.181l0,-0.001l7.67,-3.577l1.073,2.302l1.074,2.302l-6.347,2.959l6.347,2.96z" id="path10059" fill="#ff931e" fill-rule="nonzero"/>
    </g>
   </g>
  </g>
  <g transform="matrix(0.352778 0 0 -0.352778 -108.548 219.124)" id="g10149">
   <path d="m377.94101,576.74731c0,-0.622 0.133,-1.047 0.401,-1.277c0.267,-0.23 0.606,-0.345 1.016,-0.345c0.161,0 0.345,0.024 0.55,0.074c0.205,0.05 0.419,0.118 0.643,0.205c0.223,0.087 0.444,0.187 0.661,0.299c0.218,0.111 0.42,0.23 0.606,0.354l0,4.232c-0.435,0.174 -0.842,0.308 -1.221,0.4c-0.379,0.094 -0.742,0.14 -1.09,0.14c-0.435,0 -0.805,-0.13 -1.109,-0.391c-0.305,-0.261 -0.457,-0.703 -0.457,-1.324l0,-2.367zm-1.976,2.629c0,1.031 0.295,1.842 0.885,2.433c0.591,0.589 1.371,0.884 2.34,0.884c0.323,0 0.711,-0.034 1.165,-0.101c0.454,-0.07 0.941,-0.209 1.463,-0.42l0,4.53l1.977,0l0,-13.349l-1.79,0l-0.187,0.915c-0.633,-0.386 -1.171,-0.65 -1.612,-0.792c-0.441,-0.144 -0.824,-0.215 -1.146,-0.215c-0.958,0 -1.713,0.27 -2.265,0.811c-0.554,0.54 -0.83,1.382 -0.83,2.526l0,2.778z" id="path10151" fill="#ff931e" fill-rule="nonzero"/>
  </g>
  <g transform="matrix(0.352778 0 0 -0.352778 -108.548 219.124)" id="g10153">
   <path d="m392.55621,574.51001c-0.497,-0.51 -1.025,-0.846 -1.584,-1.007c-0.56,-0.161 -1.119,-0.242 -1.679,-0.242c-0.521,0 -1.012,0.074 -1.472,0.224c-0.46,0.149 -0.858,0.366 -1.193,0.652c-0.336,0.286 -0.6,0.631 -0.793,1.035c-0.193,0.403 -0.288,0.866 -0.288,1.389l0,2.74c0,0.547 0.105,1.031 0.317,1.454c0.211,0.422 0.49,0.776 0.838,1.063c0.348,0.286 0.746,0.504 1.193,0.652c0.448,0.149 0.908,0.224 1.38,0.224c0.273,0 0.553,-0.016 0.839,-0.046c0.286,-0.032 0.568,-0.088 0.848,-0.168c0.28,-0.081 0.553,-0.199 0.821,-0.355c0.266,-0.155 0.524,-0.363 0.773,-0.624l-1.156,-1.472c-0.423,0.384 -0.799,0.621 -1.128,0.708c-0.329,0.086 -0.618,0.13 -0.866,0.13c-0.212,0 -0.429,-0.035 -0.653,-0.102c-0.224,-0.069 -0.426,-0.178 -0.606,-0.326c-0.18,-0.15 -0.329,-0.346 -0.447,-0.588c-0.119,-0.242 -0.177,-0.537 -0.177,-0.886l0,-1.976c0,-0.348 0.053,-0.643 0.158,-0.885c0.105,-0.242 0.245,-0.438 0.419,-0.587c0.174,-0.15 0.373,-0.258 0.597,-0.326c0.224,-0.069 0.454,-0.103 0.69,-0.103c0.261,0 0.578,0.059 0.951,0.177c0.372,0.118 0.708,0.32 1.006,0.606l1.212,-1.361z" id="path10155" fill="#ff931e" fill-rule="nonzero"/>
  </g>
  <g transform="matrix(0.352778 0 0 -0.352778 -108.548 219.124)" id="g10157">
   <path d="m403.06989,576.9895c0,-0.597 -0.118,-1.128 -0.354,-1.594c-0.236,-0.466 -0.563,-0.857 -0.979,-1.175c-0.416,-0.317 -0.917,-0.558 -1.5,-0.726c-0.584,-0.168 -1.219,-0.252 -1.902,-0.252c-0.907,0 -1.762,0.127 -2.563,0.382c-0.802,0.255 -1.576,0.686 -2.321,1.296l1.193,1.548c0.559,-0.412 1.153,-0.731 1.78,-0.961c0.628,-0.23 1.259,-0.345 1.893,-0.345c0.844,0 1.475,0.171 1.892,0.512c0.416,0.341 0.624,0.772 0.624,1.294c0,0.359 -0.084,0.651 -0.252,0.875c-0.167,0.222 -0.394,0.409 -0.68,0.557c-0.286,0.15 -0.612,0.267 -0.978,0.354c-0.367,0.087 -0.749,0.18 -1.147,0.279c-0.498,0.112 -0.979,0.255 -1.445,0.428c-0.466,0.174 -0.876,0.4 -1.23,0.679c-0.354,0.28 -0.64,0.62 -0.858,1.024c-0.217,0.403 -0.326,0.896 -0.326,1.479c0,0.546 0.099,1.049 0.299,1.508c0.198,0.459 0.484,0.857 0.856,1.192c0.373,0.334 0.821,0.598 1.343,0.791c0.522,0.192 1.106,0.288 1.752,0.288c0.771,0 1.532,-0.078 2.284,-0.231c0.752,-0.154 1.47,-0.446 2.153,-0.877l-0.951,-1.744c-0.571,0.348 -1.14,0.59 -1.705,0.727c-0.566,0.136 -1.122,0.205 -1.669,0.205c-0.298,0 -0.581,-0.037 -0.848,-0.112c-0.267,-0.075 -0.503,-0.186 -0.708,-0.336c-0.205,-0.149 -0.37,-0.338 -0.494,-0.568c-0.125,-0.23 -0.187,-0.501 -0.187,-0.811c0,-0.311 0.081,-0.572 0.242,-0.783c0.161,-0.212 0.376,-0.388 0.644,-0.532c0.267,-0.142 0.571,-0.261 0.913,-0.353c0.342,-0.094 0.699,-0.178 1.072,-0.252c0.609,-0.137 1.168,-0.298 1.678,-0.485c0.509,-0.186 0.947,-0.426 1.314,-0.718c0.367,-0.292 0.653,-0.643 0.857,-1.053c0.205,-0.41 0.308,-0.913 0.308,-1.51" id="path10159" fill="#f6f3eb" fill-rule="nonzero"/>
  </g>
  <g transform="matrix(0.352778 0 0 -0.352778 -108.548 219.124)" id="g10161">
   <path d="m410.45221,579.17023c0,0.622 -0.133,1.047 -0.4,1.277c-0.268,0.23 -0.606,0.345 -1.017,0.345c-0.162,0 -0.344,-0.024 -0.549,-0.074c-0.205,-0.05 -0.42,-0.118 -0.644,-0.205c-0.223,-0.087 -0.444,-0.187 -0.661,-0.299c-0.218,-0.111 -0.42,-0.23 -0.606,-0.354l0,-4.213c0.497,-0.211 0.922,-0.354 1.276,-0.428c0.355,-0.075 0.7,-0.112 1.035,-0.112c0.212,0 0.413,0.024 0.606,0.074c0.192,0.05 0.36,0.14 0.503,0.27c0.143,0.131 0.255,0.301 0.336,0.513c0.08,0.211 0.121,0.472 0.121,0.783l0,2.423zm1.976,-2.609c0,-1.032 -0.282,-1.843 -0.845,-2.433c-0.564,-0.591 -1.36,-0.886 -2.388,-0.886c-0.323,0 -0.706,0.032 -1.152,0.093c-0.446,0.063 -0.936,0.218 -1.468,0.467l0,-4.139l-1.977,0l0,12.919l1.79,0l0.187,-0.914c0.631,0.386 1.17,0.649 1.616,0.793c0.446,0.143 0.83,0.214 1.153,0.214c0.953,0 1.706,-0.27 2.257,-0.811c0.551,-0.541 0.827,-1.382 0.827,-2.526l0,-2.777z" id="path10163" fill="#f6f3eb" fill-rule="nonzero"/>
  </g>
  <g transform="matrix(0.352778 0 0 -0.352778 -108.548 219.124)" id="g10165">
   <path d="m419.88531,577.30591l-2.219,0c-0.174,0 -0.354,-0.012 -0.54,-0.037c-0.187,-0.025 -0.358,-0.077 -0.513,-0.158c-0.155,-0.081 -0.286,-0.196 -0.392,-0.345c-0.105,-0.149 -0.158,-0.355 -0.158,-0.615c0,-0.348 0.124,-0.618 0.373,-0.811c0.249,-0.193 0.578,-0.289 0.988,-0.289c0.224,0 0.448,0.027 0.671,0.084c0.224,0.056 0.444,0.124 0.662,0.205c0.217,0.08 0.422,0.17 0.615,0.27c0.193,0.099 0.364,0.193 0.513,0.28l0,1.416zm-0.038,-3.113c-0.658,-0.372 -1.214,-0.618 -1.668,-0.737c-0.454,-0.117 -0.873,-0.176 -1.258,-0.176c-0.92,0 -1.641,0.248 -2.163,0.746c-0.521,0.497 -0.783,1.18 -0.783,2.051c0,0.508 0.112,0.937 0.336,1.286c0.223,0.347 0.503,0.63 0.839,0.847c0.335,0.218 0.699,0.376 1.09,0.476c0.392,0.099 0.755,0.149 1.091,0.149l2.554,0l0,0.56c0,0.546 -0.156,0.937 -0.466,1.174c-0.311,0.236 -0.79,0.354 -1.436,0.354c-0.31,0 -0.693,-0.047 -1.146,-0.139c-0.454,-0.094 -0.91,-0.327 -1.37,-0.7l-0.914,1.473c0.622,0.472 1.246,0.779 1.874,0.923c0.627,0.142 1.208,0.214 1.743,0.214c1.267,0 2.199,-0.28 2.796,-0.839c0.597,-0.559 0.895,-1.41 0.895,-2.554l0,-5.947l-1.789,0l-0.168,0.802l-0.057,0.037z" id="path10167" fill="#f6f3eb" fill-rule="nonzero"/>
  </g>
  <g transform="matrix(0.352778 0 0 -0.352778 -108.548 219.124)" id="g10169">
   <path d="m429.2623,580.6438c-0.82,-0.075 -1.5,-0.212 -2.042,-0.41c-0.54,-0.199 -0.991,-0.411 -1.351,-0.634l0,-6.246l-1.976,0l0,9.247l1.79,0l0.167,-1.361l0.019,0c0.162,0.162 0.37,0.329 0.624,0.504c0.255,0.173 0.535,0.332 0.839,0.475c0.305,0.143 0.622,0.261 0.951,0.354c0.33,0.093 0.656,0.139 0.979,0.139l0,-2.068z" id="path10171" fill="#f6f3eb" fill-rule="nonzero"/>
  </g>
  <g transform="matrix(0.352778 0 0 -0.352778 -108.548 219.124)" id="g10173">
   <path d="m430.26859,573.35382l0,13.349l1.976,0l0,-7.066l1.063,0c0.373,0 0.692,0.074 0.96,0.224c0.267,0.148 0.513,0.447 0.736,0.894l0.951,1.865l2.218,0l-1.118,-2.33c-0.174,-0.362 -0.361,-0.665 -0.559,-0.914c-0.2,-0.249 -0.485,-0.441 -0.858,-0.578c0.261,-0.087 0.478,-0.202 0.652,-0.345c0.174,-0.143 0.317,-0.301 0.429,-0.475c0.112,-0.175 0.205,-0.361 0.28,-0.56c0.075,-0.199 0.143,-0.398 0.205,-0.596l1.156,-3.468l-2.2,0l-0.951,2.983c-0.174,0.547 -0.391,0.92 -0.652,1.119c-0.261,0.199 -0.634,0.298 -1.119,0.298l-1.193,0l0,-4.4l-1.976,0z" id="path10175" fill="#f6f3eb" fill-rule="nonzero"/>
  </g>
  <g transform="matrix(0.352778 0 0 -0.352778 -108.548 219.124)" id="g10177">
   <path d="m360.8511,579.47388zm-2.148,8.157l0,-7.156l-6.485,3.024l-0.908,-1.946l-0.908,-1.946l5.367,-2.503l-5.367,-2.502l0.908,-1.947l0.908,-1.947l6.485,3.025l2.148,1.002l2.147,1.001l0,0.367l0,2.003l0,0.366l0,2.004l0,7.155l-4.295,0z" id="path10179" fill="#f6f3eb" fill-rule="nonzero"/>
  </g>
  <g transform="matrix(0.352778 0 0 -0.352778 -108.548 219.124)" id="g10181">
   <path d="m371.2999,579.60669l-1.815,3.893l-6.486,-3.024l0,-4.373l0,-0.367l-2.148,-1.001l-0.003,-0.002l2.151,-0.999l0,-0.001l6.486,-3.024l0.907,1.947l0.908,1.946l-5.367,2.502l5.367,2.503z" id="path10183" fill="#ff931e" fill-rule="nonzero"/>
  </g>
  <g id="g10199" transform="matrix(0.35277776,0,0,-0.35277778,-108.54785,219.12439)">
   <g id="g10201" clip-path="url(#clipPath10205)">
    <g id="g10207">
     <path d="m631.7735,559.34009l0,0l0,-0.001l0,0.001zm-28.441,108.024l0,-94.762l0,-26.525l0,-4.857l0,-26.525l0,-4.856l28.441,-13.263l0,0.001l0,-0.001l28.441,-13.262l85.884,-40.048l12.021,25.775l12.02,25.777l-71.068,33.14l71.068,33.139l-12.02,25.775l-12.021,25.778l-85.884,-40.049l0,94.763l-28.441,0l-28.441,0z" id="path10209" fill="#ff931e" fill-rule="nonzero"/>
    </g>
   </g>
  </g>
 </g>
</svg>