<svg width="401" height="401" viewBox="0 0 401 401" fill="none" xmlns="http://www.w3.org/2000/svg">
<path d="M297.13 175.74C297.05 181.78 297.04 187.83 297.18 193.87C297.54 209.7 298.82 225.97 293.74 240.97C287.93 258.14 274.55 271.48 261.6 284.16C237.45 307.8 213.3 331.43 189.15 355.07C187.17 357 182.55 360.92 180.5 356.96C179.58 355.17 179.83 352.85 179.76 350.91C179.67 348.4 179.59 345.89 179.51 343.37C179.2 333.32 178.99 323.27 178.88 313.21C178.8 306.22 178.78 299.24 178.8 292.25C178.81 287.8 178.88 283.2 180.67 279.12C182.32 275.37 185.28 272.38 188.18 269.49C202.54 255.17 216.9 240.85 231.26 226.53C236.21 221.6 241.51 215.8 241.25 208.82C241 202.26 235.6 196.79 229.48 194.41C223.36 192.03 216.6 192.11 210.03 192.22C203.3 192.33 196.58 192.45 189.85 192.56C188.25 192.59 186.52 192.57 185.24 191.6C181.95 189.1 184.87 183.96 187.84 181.08C211 158.6 234.16 136.13 257.33 113.65C261.44 109.66 265.84 105.51 271.42 104.21C280.78 102.03 290.33 109.01 294.35 117.74C298.37 126.47 298.2 136.47 297.91 146.08C297.62 155.98 297.27 165.86 297.13 175.74Z" fill="#FE6100"/>
<path d="M103.14 224.78C103.14 212.01 103.46 199.22 103.07 186.46C102.44 166.11 108.84 148.45 122.08 133.1C126.18 128.34 130.72 124 135.11 119.54C158.87 95.39 182.67 71.29 206.45 47.17C208.28 45.31 209.81 42.94 212.22 41.77C212.86 41.46 213.6 41.29 214.3 41.45C215.92 41.81 216.72 44.01 217.13 45.42C217.68 47.28 217.72 49.25 217.74 51.17C217.78 54.75 217.81 58.33 217.85 61.91C217.93 69.07 218.01 76.23 218.09 83.39C218.19 92.13 218.28 100.86 218.35 109.6C218.38 113.25 218.12 116.93 217.06 120.47C216.38 122.74 215.26 124.71 213.59 126.44C197.09 143.39 180.58 160.33 164.18 177.37C160.33 181.37 157.72 186.08 157.78 191.92C157.8 193.77 158.16 195.46 159.09 197C163.28 203.96 169.19 208.03 177.57 208C188.01 207.97 198.45 208.11 208.89 207.94C212.9 207.87 214.11 210.77 213.27 213.9C212.78 215.72 211.66 217.16 210.34 218.47C192.46 236.4 174.58 254.34 156.7 272.27C150.74 278.25 144.79 284.24 138.78 290.16C136.68 292.23 134.28 293.95 131.55 295.14C127 297.12 122.36 296.53 118.11 294.65C111.4 291.69 106.08 287.12 104.32 279.5C103.27 274.97 103.19 270.35 103.17 265.76C103.09 252.1 103.14 238.44 103.14 224.78Z" fill="#FE6100"/>
</svg>
